<svg width="4100" height="3037" viewBox="0 0 4100 3037" fill="none" xmlns="http://www.w3.org/2000/svg">
<path d="M214.8 2452C181.2 2452 150.4 2444 122.4 2428C94.3999 2412 71.7999 2389.2 54.5999 2359.6C37.7999 2330 29.3999 2294.6 29.3999 2253.4C29.3999 2212.6 37.3999 2177 53.3999 2146.6C69.3999 2115.8 91.9999 2092 121.2 2075.2C150.8 2058 185.6 2049.4 225.6 2049.4C240 2049.4 254.8 2050.8 270 2053.6C285.6 2056.4 300 2061.2 313.2 2068C326.4 2074.4 337 2083 345 2093.8C353.4 2104.6 357.6 2118 357.6 2134C358 2151.2 352.8 2166.4 342 2179.6C331.2 2192.4 316 2198.8 296.4 2198.8C284.4 2198.8 275.8 2196 270.6 2190.4C265.8 2184.4 263.6 2180 264 2177.2C264 2176 266.4 2174 271.2 2171.2C276.4 2168 281.4 2163.4 286.2 2157.4C291.4 2151 294 2142.6 294 2132.2C294 2114.2 288 2100 276 2089.6C264 2078.8 247 2073.4 225 2073.4C201 2073.4 179.4 2080.2 160.2 2093.8C141.4 2107.4 126.6 2127.4 115.8 2153.8C105 2179.8 99.5999 2211.8 99.5999 2249.8C99.5999 2281.8 105.2 2311 116.4 2337.4C128 2363.4 144 2384.2 164.4 2399.8C185.2 2415 209.2 2422.6 236.4 2422.6C258 2422.6 276.4 2418.2 291.6 2409.4C307.2 2400.2 321.2 2385.6 333.6 2365.6C337.2 2358.8 343.6 2358.2 352.8 2363.8C356.4 2366.2 359.2 2369.2 361.2 2372.8C363.2 2376 362.8 2379.4 360 2383C344.8 2402.2 330.4 2416.8 316.8 2426.8C303.2 2436.4 288.4 2443 272.4 2446.6C256.4 2450.2 237.2 2452 214.8 2452ZM542.916 2447.2C514.916 2447.2 490.316 2440.6 469.116 2427.4C448.316 2414.2 432.116 2397 420.516 2375.8C408.916 2354.6 403.116 2332 403.116 2308C403.116 2284.4 407.316 2263.4 415.716 2245C424.116 2226.6 435.116 2211.2 448.716 2198.8C462.716 2186.4 477.916 2177 494.316 2170.6C510.716 2164.2 526.916 2161 542.916 2161C570.916 2161 595.316 2167.6 616.116 2180.8C637.316 2194 653.716 2211.2 665.316 2232.4C676.916 2253.6 682.716 2276.2 682.716 2300.2C682.716 2323.8 678.316 2344.8 669.516 2363.2C661.116 2381.6 649.916 2397 635.916 2409.4C622.316 2421.8 607.316 2431.2 590.916 2437.6C574.516 2444 558.516 2447.2 542.916 2447.2ZM542.916 2425C562.516 2425 577.916 2419.2 589.116 2407.6C600.716 2396 608.916 2380.8 613.716 2362C618.916 2342.8 621.516 2322.2 621.516 2300.2C621.516 2279 618.916 2259.6 613.716 2242C608.516 2224.4 600.116 2210.2 588.516 2199.4C576.916 2188.6 561.716 2183.2 542.916 2183.2C523.316 2183.2 507.716 2189 496.116 2200.6C484.516 2211.8 476.316 2226.8 471.516 2245.6C466.716 2264 464.316 2284.4 464.316 2306.8C464.316 2327.6 466.716 2347 471.516 2365C476.716 2383 485.116 2397.6 496.716 2408.8C508.316 2419.6 523.716 2425 542.916 2425ZM737.339 2441.8C734.139 2441.8 731.739 2440.6 730.139 2438.2C728.539 2435.4 727.739 2432.6 727.739 2429.8C728.139 2423.8 729.539 2420.6 731.939 2420.2C734.339 2419.4 737.539 2419 741.539 2419C752.739 2419 760.339 2417.2 764.339 2413.6C768.739 2409.6 771.139 2404.4 771.539 2398C771.939 2391.6 772.139 2385 772.139 2378.2V2191.6H731.939C728.739 2191.6 726.139 2190.4 724.139 2188C722.539 2185.2 721.739 2182.4 721.739 2179.6C722.139 2173.2 723.539 2169.8 725.939 2169.4C728.739 2168.6 732.139 2168.2 736.139 2168.2H772.139V2143C772.139 2116.2 776.339 2092.4 784.739 2071.6C793.139 2050.8 805.539 2034.2 821.939 2021.8C838.739 2009.4 859.139 2003 883.139 2002.6C895.539 2002.6 907.539 2005 919.139 2009.8C930.739 2014.6 940.339 2021.4 947.939 2030.2C955.539 2038.6 959.339 2049 959.339 2061.4C959.339 2072.6 955.939 2083 949.139 2092.6C942.339 2101.8 932.539 2106.4 919.739 2106.4C911.339 2106.4 904.739 2104.2 899.939 2099.8C895.539 2095.4 893.339 2092.4 893.339 2090.8C893.339 2089.6 894.939 2087.8 898.139 2085.4C901.739 2082.6 905.139 2078.6 908.339 2073.4C911.939 2068.2 913.739 2061.8 913.739 2054.2C913.739 2045.4 910.339 2038 903.539 2032C897.139 2025.6 888.939 2022.4 878.939 2022.4C865.739 2022.4 855.539 2026.4 848.339 2034.4C841.139 2042.4 836.139 2052.4 833.339 2064.4C830.539 2076.4 828.739 2088.6 827.939 2101C827.539 2113.4 827.339 2123.8 827.339 2132.2V2168.2H886.139C890.139 2168.2 893.539 2168.6 896.339 2169.4C899.139 2169.8 900.739 2173.2 901.139 2179.6C901.139 2182.4 900.139 2185.2 898.139 2188C896.539 2190.4 894.139 2191.6 890.939 2191.6H827.339V2378.2C827.339 2389.8 828.139 2398.6 829.739 2404.6C831.739 2410.6 835.739 2414.6 841.739 2416.6C848.139 2418.2 857.539 2419 869.939 2419C873.939 2419 877.139 2419.4 879.539 2420.2C881.939 2420.6 883.339 2423.8 883.739 2429.8C883.739 2432.6 882.939 2435.4 881.339 2438.2C880.139 2440.6 877.939 2441.8 874.739 2441.8C863.139 2441 850.339 2440.4 836.339 2440C822.339 2440 810.139 2440 799.739 2440C788.939 2440 778.739 2440 769.139 2440C759.539 2440.4 748.939 2441 737.339 2441.8ZM943.003 2441.8C939.803 2441.8 937.403 2440.6 935.803 2438.2C934.203 2435.4 933.403 2432.6 933.403 2429.8C933.803 2423.8 935.203 2420.6 937.603 2420.2C940.003 2419.4 943.203 2419 947.203 2419C958.403 2419 966.003 2417.2 970.003 2413.6C974.403 2409.6 976.803 2404.4 977.203 2398C977.603 2391.6 977.803 2385 977.803 2378.2V2191.6H937.603C934.403 2191.6 931.803 2190.4 929.803 2188C928.203 2185.2 927.403 2182.4 927.403 2179.6C927.803 2173.2 929.203 2169.8 931.603 2169.4C934.403 2168.6 937.803 2168.2 941.803 2168.2H977.803V2143C977.803 2116.2 982.003 2092.4 990.403 2071.6C998.803 2050.8 1011.2 2034.2 1027.6 2021.8C1044.4 2009.4 1064.8 2003 1088.8 2002.6C1101.2 2002.6 1113.2 2005 1124.8 2009.8C1136.4 2014.6 1146 2021.4 1153.6 2030.2C1161.2 2038.6 1165 2049 1165 2061.4C1165 2072.6 1161.6 2083 1154.8 2092.6C1148 2101.8 1138.2 2106.4 1125.4 2106.4C1117 2106.4 1110.4 2104.2 1105.6 2099.8C1101.2 2095.4 1099 2092.4 1099 2090.8C1099 2089.6 1100.6 2087.8 1103.8 2085.4C1107.4 2082.6 1110.8 2078.6 1114 2073.4C1117.6 2068.2 1119.4 2061.8 1119.4 2054.2C1119.4 2045.4 1116 2038 1109.2 2032C1102.8 2025.6 1094.6 2022.4 1084.6 2022.4C1071.4 2022.4 1061.2 2026.4 1054 2034.4C1046.8 2042.4 1041.8 2052.4 1039 2064.4C1036.2 2076.4 1034.4 2088.6 1033.6 2101C1033.2 2113.4 1033 2123.8 1033 2132.2V2168.2H1091.8C1095.8 2168.2 1099.2 2168.6 1102 2169.4C1104.8 2169.8 1106.4 2173.2 1106.8 2179.6C1106.8 2182.4 1105.8 2185.2 1103.8 2188C1102.2 2190.4 1099.8 2191.6 1096.6 2191.6H1033V2378.2C1033 2389.8 1033.8 2398.6 1035.4 2404.6C1037.4 2410.6 1041.4 2414.6 1047.4 2416.6C1053.8 2418.2 1063.2 2419 1075.6 2419C1079.6 2419 1082.8 2419.4 1085.2 2420.2C1087.6 2420.6 1089 2423.8 1089.4 2429.8C1089.4 2432.6 1088.6 2435.4 1087 2438.2C1085.8 2440.6 1083.6 2441.8 1080.4 2441.8C1068.8 2441 1056 2440.4 1042 2440C1028 2440 1015.8 2440 1005.4 2440C994.603 2440 984.403 2440 974.803 2440C965.203 2440.4 954.603 2441 943.003 2441.8ZM1271.84 2447.2C1241.04 2447.2 1215.04 2440.6 1193.84 2427.4C1173.04 2414.2 1157.44 2396.6 1147.04 2374.6C1136.64 2352.6 1131.44 2328.6 1131.44 2302.6C1131.44 2285 1134.44 2268 1140.44 2251.6C1146.84 2234.8 1155.84 2219.6 1167.44 2206C1179.04 2192 1193.04 2181 1209.44 2173C1225.84 2165 1244.44 2161 1265.24 2161C1302.04 2161 1329.64 2170.6 1348.04 2189.8C1366.84 2208.6 1377.64 2232.6 1380.44 2261.8C1380.44 2275.8 1376.44 2285 1368.44 2289.4C1360.84 2293.8 1350.84 2296 1338.44 2296H1192.64C1192.64 2319.2 1195.84 2340 1202.24 2358.4C1208.64 2376.4 1218.64 2390.8 1232.24 2401.6C1246.24 2412 1264.64 2417.2 1287.44 2417.2C1304.24 2417.2 1318.64 2413.6 1330.64 2406.4C1342.64 2399.2 1354.24 2386.6 1365.44 2368.6C1368.64 2364.6 1373.04 2364.4 1378.64 2368C1381.84 2369.6 1383.84 2372.2 1384.64 2375.8C1385.44 2379 1385.04 2381.8 1383.44 2384.2C1371.04 2403.8 1355.44 2419.2 1336.64 2430.4C1317.84 2441.6 1296.24 2447.2 1271.84 2447.2ZM1192.64 2273.2H1290.44C1300.04 2273.2 1307.64 2271.4 1313.24 2267.8C1319.24 2263.8 1322.44 2257.2 1322.84 2248C1322.84 2230.8 1318.04 2215.6 1308.44 2202.4C1299.24 2188.8 1284.84 2182 1265.24 2182C1245.24 2182 1228.44 2190 1214.84 2206C1201.64 2222 1194.24 2244.4 1192.64 2273.2ZM1573.01 2447.2C1542.21 2447.2 1516.21 2440.6 1495.01 2427.4C1474.21 2414.2 1458.61 2396.6 1448.21 2374.6C1437.81 2352.6 1432.61 2328.6 1432.61 2302.6C1432.61 2285 1435.61 2268 1441.61 2251.6C1448.01 2234.8 1457.01 2219.6 1468.61 2206C1480.21 2192 1494.21 2181 1510.61 2173C1527.01 2165 1545.61 2161 1566.41 2161C1603.21 2161 1630.81 2170.6 1649.21 2189.8C1668.01 2208.6 1678.81 2232.6 1681.61 2261.8C1681.61 2275.8 1677.61 2285 1669.61 2289.4C1662.01 2293.8 1652.01 2296 1639.61 2296H1493.81C1493.81 2319.2 1497.01 2340 1503.41 2358.4C1509.81 2376.4 1519.81 2390.8 1533.41 2401.6C1547.41 2412 1565.81 2417.2 1588.61 2417.2C1605.41 2417.2 1619.81 2413.6 1631.81 2406.4C1643.81 2399.2 1655.41 2386.6 1666.61 2368.6C1669.81 2364.6 1674.21 2364.4 1679.81 2368C1683.01 2369.6 1685.01 2372.2 1685.81 2375.8C1686.61 2379 1686.21 2381.8 1684.61 2384.2C1672.21 2403.8 1656.61 2419.2 1637.81 2430.4C1619.01 2441.6 1597.41 2447.2 1573.01 2447.2ZM1493.81 2273.2H1591.61C1601.21 2273.2 1608.81 2271.4 1614.41 2267.8C1620.41 2263.8 1623.61 2257.2 1624.01 2248C1624.01 2230.8 1619.21 2215.6 1609.61 2202.4C1600.41 2188.8 1586.01 2182 1566.41 2182C1546.41 2182 1529.61 2190 1516.01 2206C1502.81 2222 1495.41 2244.4 1493.81 2273.2ZM1878.77 2441.8C1875.17 2441.8 1872.57 2440.4 1870.97 2437.6C1869.37 2434.8 1868.57 2431.8 1868.57 2428.6C1868.97 2421.8 1870.57 2418 1873.37 2417.2C1876.17 2416.4 1879.57 2416 1883.57 2416C1896.37 2416 1905.37 2413.8 1910.57 2409.4C1915.77 2404.6 1918.97 2398.8 1920.17 2392C1921.77 2384.8 1922.57 2377.4 1922.57 2369.8V2131.6C1922.57 2124 1921.77 2116.8 1920.17 2110C1918.97 2102.8 1915.77 2097 1910.57 2092.6C1905.37 2087.8 1896.37 2085.4 1883.57 2085.4C1879.57 2085.4 1876.17 2085 1873.37 2084.2C1870.57 2083.4 1868.97 2079.6 1868.57 2072.8C1868.57 2069.6 1869.37 2066.6 1870.97 2063.8C1872.57 2061 1875.17 2059.6 1878.77 2059.6C1891.97 2060 1904.17 2060.4 1915.37 2060.8C1926.57 2061.2 1938.17 2061.4 1950.17 2061.4H2043.77C2082.17 2061.4 2116.97 2069 2148.17 2084.2C2179.37 2099.4 2204.17 2121.2 2222.57 2149.6C2240.97 2178 2250.17 2212.4 2250.17 2252.8C2250.17 2284.8 2243.97 2312.6 2231.57 2336.2C2219.17 2359.8 2202.57 2379.4 2181.77 2395C2160.97 2410.2 2137.57 2421.6 2111.57 2429.2C2085.97 2436.4 2059.77 2440 2032.97 2440H1950.17C1938.17 2440 1926.57 2440 1915.37 2440C1904.17 2440.4 1891.97 2441 1878.77 2441.8ZM2041.97 2417.8C2074.37 2417.8 2100.57 2411 2120.57 2397.4C2140.57 2383.4 2154.97 2364 2163.77 2339.2C2172.97 2314.4 2177.57 2285.6 2177.57 2252.8C2177.57 2220 2171.77 2190.8 2160.17 2165.2C2148.57 2139.6 2131.57 2119.6 2109.17 2105.2C2087.17 2090.4 2060.37 2083 2028.77 2083C2022.37 2083 2013.97 2083.2 2003.57 2083.6C1993.17 2083.6 1985.97 2083.6 1981.97 2083.6V2377C1981.97 2393 1986.77 2403.8 1996.37 2409.4C2006.37 2415 2021.57 2417.8 2041.97 2417.8ZM2444.3 2447.2C2413.5 2447.2 2387.5 2440.6 2366.3 2427.4C2345.5 2414.2 2329.9 2396.6 2319.5 2374.6C2309.1 2352.6 2303.9 2328.6 2303.9 2302.6C2303.9 2285 2306.9 2268 2312.9 2251.6C2319.3 2234.8 2328.3 2219.6 2339.9 2206C2351.5 2192 2365.5 2181 2381.9 2173C2398.3 2165 2416.9 2161 2437.7 2161C2474.5 2161 2502.1 2170.6 2520.5 2189.8C2539.3 2208.6 2550.1 2232.6 2552.9 2261.8C2552.9 2275.8 2548.9 2285 2540.9 2289.4C2533.3 2293.8 2523.3 2296 2510.9 2296H2365.1C2365.1 2319.2 2368.3 2340 2374.7 2358.4C2381.1 2376.4 2391.1 2390.8 2404.7 2401.6C2418.7 2412 2437.1 2417.2 2459.9 2417.2C2476.7 2417.2 2491.1 2413.6 2503.1 2406.4C2515.1 2399.2 2526.7 2386.6 2537.9 2368.6C2541.1 2364.6 2545.5 2364.4 2551.1 2368C2554.3 2369.6 2556.3 2372.2 2557.1 2375.8C2557.9 2379 2557.5 2381.8 2555.9 2384.2C2543.5 2403.8 2527.9 2419.2 2509.1 2430.4C2490.3 2441.6 2468.7 2447.2 2444.3 2447.2ZM2365.1 2273.2H2462.9C2472.5 2273.2 2480.1 2271.4 2485.7 2267.8C2491.7 2263.8 2494.9 2257.2 2495.3 2248C2495.3 2230.8 2490.5 2215.6 2480.9 2202.4C2471.7 2188.8 2457.3 2182 2437.7 2182C2417.7 2182 2400.9 2190 2387.3 2206C2374.1 2222 2366.7 2244.4 2365.1 2273.2ZM2605.92 2441.8C2602.32 2441.8 2599.72 2440.4 2598.12 2437.6C2596.52 2434.8 2595.72 2431.8 2595.72 2428.6C2596.12 2421.8 2597.72 2418 2600.52 2417.2C2603.32 2416.4 2606.72 2416 2610.72 2416C2623.52 2416 2632.52 2413.8 2637.72 2409.4C2642.92 2404.6 2646.12 2398.8 2647.32 2392C2648.92 2384.8 2649.72 2377.4 2649.72 2369.8V2131.6C2649.72 2124 2648.92 2116.8 2647.32 2110C2646.12 2102.8 2642.92 2097 2637.72 2092.6C2632.52 2087.8 2623.52 2085.4 2610.72 2085.4C2606.72 2085.4 2603.32 2085 2600.52 2084.2C2597.72 2083.4 2596.12 2079.6 2595.72 2072.8C2595.72 2069.6 2596.52 2066.6 2598.12 2063.8C2599.72 2061 2602.32 2059.6 2605.92 2059.6C2619.12 2060 2631.32 2060.4 2642.52 2060.8C2653.72 2061.2 2665.32 2061.4 2677.32 2061.4C2701.72 2061.4 2726.72 2060.8 2752.32 2059.6C2756.32 2059.6 2759.12 2061 2760.72 2063.8C2762.32 2066.6 2763.12 2069.6 2763.12 2072.8C2762.72 2079.6 2761.12 2083.4 2758.32 2084.2C2755.52 2085 2752.12 2085.4 2748.12 2085.4C2735.72 2085.4 2726.72 2087.8 2721.12 2092.6C2715.92 2097 2712.72 2102.8 2711.52 2110C2710.32 2116.8 2709.52 2124 2709.12 2131.6V2378.8C2709.52 2384 2710.32 2389.6 2711.52 2395.6C2712.72 2401.6 2716.12 2406.6 2721.72 2410.6C2727.72 2414.6 2737.52 2416.4 2751.12 2416H2805.12C2819.12 2415.6 2829.72 2413.4 2836.92 2409.4C2844.52 2405 2850.52 2397.8 2854.92 2387.8C2859.32 2377.8 2864.12 2364 2869.32 2346.4C2870.92 2342.4 2873.52 2339.8 2877.12 2338.6C2881.12 2337.4 2885.32 2337.2 2889.72 2338C2892.92 2338.4 2896.12 2339.8 2899.32 2342.2C2902.92 2344.6 2904.52 2347.8 2904.12 2351.8L2892.12 2427.4C2890.92 2433 2888.92 2436.6 2886.12 2438.2C2883.72 2439.4 2879.92 2440 2874.72 2440H2677.92C2665.92 2440 2654.12 2440 2642.52 2440C2631.32 2440.4 2619.12 2441 2605.92 2441.8ZM2942.1 2441.8C2939.3 2441.8 2936.9 2440.6 2934.9 2438.2C2933.3 2435.4 2932.5 2432.6 2932.5 2429.8C2933.3 2423.8 2934.9 2420.6 2937.3 2420.2C2939.7 2419.4 2942.9 2419 2946.9 2419C2958.1 2419 2965.7 2417.2 2969.7 2413.6C2973.7 2409.6 2975.9 2404.4 2976.3 2398C2977.1 2391.6 2977.5 2385 2977.5 2378.2V2240.8C2977.5 2233.6 2977.1 2227 2976.3 2221C2975.9 2214.6 2973.7 2209.6 2969.7 2206C2965.7 2202 2958.1 2200 2946.9 2200C2943.3 2200 2939.9 2199.6 2936.7 2198.8C2933.9 2197.6 2932.5 2194 2932.5 2188C2932.5 2182 2935.7 2178.4 2942.1 2177.2C2960.5 2174.4 2974.5 2171.6 2984.1 2168.8C2994.1 2166 3001.7 2163.6 3006.9 2161.6C3012.1 2159.6 3016.7 2158.4 3020.7 2158C3023.9 2157.6 3026.5 2158.2 3028.5 2159.8C3030.9 2161.4 3032.1 2164.6 3032.1 2169.4V2378.2C3032.1 2385 3032.3 2391.6 3032.7 2398C3033.5 2404.4 3035.9 2409.6 3039.9 2413.6C3044.3 2417.2 3052.1 2419 3063.3 2419C3066.9 2419 3069.9 2419.4 3072.3 2420.2C3075.1 2420.6 3076.7 2423.8 3077.1 2429.8C3077.1 2432.6 3076.3 2435.4 3074.7 2438.2C3073.1 2440.6 3070.7 2441.8 3067.5 2441.8C3055.9 2441 3045.1 2440.4 3035.1 2440C3025.5 2440 3015.3 2440 3004.5 2440C2993.7 2440 2983.5 2440 2973.9 2440C2964.3 2440.4 2953.7 2441 2942.1 2441.8ZM3001.5 2091.4C2990.3 2091.4 2980.9 2088 2973.3 2081.2C2965.7 2074 2961.9 2065.2 2961.9 2054.8C2961.9 2045.6 2966.5 2037.4 2975.7 2030.2C2984.9 2023 2995.3 2019.4 3006.9 2019.4C3016.9 2019.4 3025.1 2023 3031.5 2030.2C3037.9 2037 3041.1 2045.8 3041.1 2056.6C3041.1 2066.2 3037.3 2074.4 3029.7 2081.2C3022.1 2088 3012.7 2091.4 3001.5 2091.4ZM3233.03 2570.8C3148.63 2570.8 3106.43 2546.8 3106.43 2498.8C3106.43 2485.6 3110.63 2473.8 3119.03 2463.4C3127.43 2453.4 3138.63 2448.4 3152.63 2448.4C3161.83 2448.4 3169.43 2450.8 3175.43 2455.6C3181.43 2460.8 3184.43 2464.4 3184.43 2466.4C3184.43 2467.2 3182.83 2469 3179.63 2471.8C3176.83 2474.6 3173.83 2478.4 3170.63 2483.2C3167.83 2488 3166.43 2494.4 3166.43 2502.4C3166.43 2533.2 3192.83 2548.6 3245.63 2548.6C3275.63 2548.6 3298.83 2543.4 3315.23 2533C3332.03 2522.6 3340.43 2506.8 3340.43 2485.6C3340.43 2474 3336.63 2465.2 3329.03 2459.2C3321.83 2453.2 3312.03 2449 3299.63 2446.6C3287.63 2444.2 3274.23 2442.6 3259.43 2441.8C3244.63 2441.4 3229.63 2441 3214.43 2440.6C3199.63 2440.2 3185.83 2439 3173.03 2437C3159.03 2434.6 3147.23 2430 3137.63 2423.2C3128.43 2416 3123.83 2404.4 3123.83 2388.4C3123.83 2373.6 3129.03 2360.8 3139.43 2350C3150.23 2338.8 3166.23 2333.2 3187.43 2333.2C3161.83 2323.2 3144.63 2311 3135.83 2296.6C3127.43 2282.2 3123.23 2267.4 3123.23 2252.2C3123.23 2235 3128.03 2219.6 3137.63 2206C3147.63 2192 3161.23 2181 3178.43 2173C3196.03 2164.6 3216.23 2160.4 3239.03 2160.4C3250.23 2160.4 3261.83 2161.4 3273.83 2163.4C3286.23 2165 3296.83 2168 3305.63 2172.4L3387.83 2156.8C3392.23 2156.4 3395.23 2157.8 3396.83 2161C3398.43 2164.2 3399.23 2167.6 3399.23 2171.2C3399.23 2176.4 3398.43 2181.6 3396.83 2186.8C3395.23 2191.6 3393.03 2194 3390.23 2194L3330.83 2191.6V2192.8C3337.63 2199.6 3343.43 2208.6 3348.23 2219.8C3353.03 2231 3355.43 2241.6 3355.43 2251.6C3355.43 2270.8 3349.83 2287.4 3338.63 2301.4C3327.83 2315.4 3313.83 2326.2 3296.63 2333.8C3279.83 2341 3262.23 2344.6 3243.83 2344.6H3217.43C3196.63 2344.6 3181.43 2346.6 3171.83 2350.6C3162.63 2354.6 3158.03 2361.2 3158.03 2370.4C3158.03 2377.6 3160.43 2383.2 3165.23 2387.2C3170.43 2390.8 3179.63 2393 3192.83 2393.8L3275.03 2396.8C3317.83 2398.4 3348.23 2405.2 3366.23 2417.2C3384.63 2429.2 3393.83 2447 3393.83 2470.6C3393.83 2491.8 3387.03 2509.8 3373.43 2524.6C3360.23 2539.8 3341.43 2551.2 3317.03 2558.8C3293.03 2566.8 3265.03 2570.8 3233.03 2570.8ZM3239.03 2327.2C3257.43 2327.2 3272.43 2320.8 3284.03 2308C3295.63 2294.8 3301.43 2276 3301.43 2251.6C3301.43 2229.2 3295.43 2211.6 3283.43 2198.8C3271.83 2185.6 3256.83 2179 3238.43 2179C3220.83 2179 3206.03 2185.4 3194.03 2198.2C3182.43 2210.6 3176.63 2228 3176.63 2250.4C3176.63 2274.8 3182.43 2293.8 3194.03 2307.4C3206.03 2320.6 3221.03 2327.2 3239.03 2327.2ZM3427.7 2441.8C3424.5 2441.8 3422.1 2440.6 3420.5 2438.2C3418.9 2435.4 3418.1 2432.6 3418.1 2429.8C3418.5 2423.8 3419.9 2420.6 3422.3 2420.2C3425.1 2419.4 3428.3 2419 3431.9 2419C3443.1 2419 3450.7 2417.2 3454.7 2413.6C3459.1 2409.6 3461.5 2404.4 3461.9 2398C3462.7 2391.6 3463.1 2385 3463.1 2378.2V2085.4C3463.1 2078.2 3462.7 2071.6 3461.9 2065.6C3461.5 2059.2 3459.3 2054.2 3455.3 2050.6C3451.3 2046.6 3443.7 2044.6 3432.5 2044.6C3428.9 2044.6 3425.5 2044.2 3422.3 2043.4C3419.5 2042.2 3418.1 2038.6 3418.1 2032.6C3418.1 2026.6 3421.3 2023 3427.7 2021.8C3446.1 2019 3460.1 2016.2 3469.7 2013.4C3479.7 2010.6 3487.3 2008.2 3492.5 2006.2C3497.7 2003.8 3502.3 2002.6 3506.3 2002.6C3509.5 2002.6 3512.1 2003.4 3514.1 2005C3516.5 2006.2 3517.7 2009.2 3517.7 2014V2207.2H3518.9C3526.9 2199.6 3535.1 2192.4 3543.5 2185.6C3551.9 2178.4 3561.7 2172.6 3572.9 2168.2C3584.5 2163.4 3598.7 2161 3615.5 2161C3642.7 2161 3664.3 2169.2 3680.3 2185.6C3696.3 2202 3704.3 2223.6 3704.3 2250.4V2378.2C3704.3 2385 3704.5 2391.6 3704.9 2398C3705.7 2404.4 3708.1 2409.6 3712.1 2413.6C3716.5 2417.2 3724.1 2419 3734.9 2419C3738.9 2419 3742.1 2419.4 3744.5 2420.2C3746.9 2420.6 3748.3 2423.8 3748.7 2429.8C3748.7 2432.6 3747.9 2435.4 3746.3 2438.2C3745.1 2440.6 3742.9 2441.8 3739.7 2441.8C3728.1 2441 3717.3 2440.4 3707.3 2440C3697.3 2440 3687.1 2440 3676.7 2440C3665.9 2440 3655.7 2440 3646.1 2440C3636.5 2440.4 3625.9 2441 3614.3 2441.8C3611.1 2441.8 3608.7 2440.6 3607.1 2438.2C3605.5 2435.4 3604.7 2432.6 3604.7 2429.8C3605.1 2423.8 3606.5 2420.6 3608.9 2420.2C3611.3 2419.4 3614.5 2419 3618.5 2419C3629.7 2419 3637.3 2417.2 3641.3 2413.6C3645.7 2409.6 3648.1 2404.4 3648.5 2398C3648.9 2391.6 3649.1 2385 3649.1 2378.2V2251C3649.1 2231 3643.1 2216.6 3631.1 2207.8C3619.1 2198.6 3606.1 2194 3592.1 2194C3578.5 2194 3566.5 2196.6 3556.1 2201.8C3545.7 2206.6 3537.3 2212.2 3530.9 2218.6C3524.5 2225 3520.1 2230.6 3517.7 2235.4V2378.2C3517.7 2385 3517.9 2391.6 3518.3 2398C3519.1 2404.4 3521.5 2409.6 3525.5 2413.6C3529.9 2417.2 3537.5 2419 3548.3 2419C3552.3 2419 3555.5 2419.4 3557.9 2420.2C3560.3 2420.6 3561.7 2423.8 3562.1 2429.8C3562.1 2432.6 3561.3 2435.4 3559.7 2438.2C3558.5 2440.6 3556.3 2441.8 3553.1 2441.8C3541.5 2441 3530.7 2440.4 3520.7 2440C3510.7 2440 3500.5 2440 3490.1 2440C3479.3 2440 3469.1 2440 3459.5 2440C3449.9 2440.4 3439.3 2441 3427.7 2441.8ZM3883.12 2450.2C3871.12 2450.2 3859.72 2447.2 3848.92 2441.2C3838.12 2435.2 3829.12 2426 3821.92 2413.6C3815.12 2401.2 3811.72 2385.6 3811.72 2366.8V2190.4L3776.92 2191.6C3774.12 2191.6 3771.92 2190.6 3770.32 2188.6C3769.12 2186.2 3768.52 2183.6 3768.52 2180.8C3768.52 2172.8 3771.32 2168.2 3776.92 2167C3791.72 2164.2 3802.92 2159.6 3810.52 2153.2C3818.12 2146.4 3823.92 2138.4 3827.92 2129.2C3832.32 2120 3836.32 2110 3839.92 2099.2C3841.12 2096 3842.92 2094 3845.32 2093.2C3847.72 2092 3850.32 2091.4 3853.12 2091.4C3855.52 2091.4 3858.12 2092 3860.92 2093.2C3864.12 2094.4 3865.72 2096.6 3865.72 2099.8L3861.52 2168.2L3931.72 2164C3935.32 2163.6 3937.72 2164.6 3938.92 2167C3940.12 2169.4 3940.72 2172.2 3940.72 2175.4C3940.72 2179.4 3939.92 2183.4 3938.32 2187.4C3937.12 2191.4 3935.52 2193.4 3933.52 2193.4L3866.32 2191.6V2374C3866.32 2385.6 3868.72 2396.2 3873.52 2405.8C3878.72 2415.4 3887.92 2420.2 3901.12 2420.2C3905.52 2420.2 3910.52 2419.8 3916.12 2419C3921.72 2418.2 3927.72 2416.4 3934.12 2413.6C3935.72 2412.8 3937.32 2412.2 3938.92 2411.8C3940.52 2411 3942.12 2410.6 3943.72 2410.6C3946.92 2410.6 3949.32 2412 3950.92 2414.8C3952.52 2417.2 3953.92 2419.8 3955.12 2422.6C3956.32 2426.2 3955.32 2429 3952.12 2431C3939.72 2439 3928.32 2444.2 3917.92 2446.6C3907.52 2449 3895.92 2450.2 3883.12 2450.2Z" fill="black"/>
<path d="M1990.35 427.027C1984.24 423.641 1986.95 415.092 1991.27 409.606C1999.2 399.558 2008.08 379.892 2002.29 347.275C1992.64 292.923 1912 264.801 1912 171.624C1912 81.6966 1985.59 -9.49447 1999.77 0.796925C2012.78 10.239 1947.19 62.6649 1945.08 158.637C1942.69 267.321 2030.8 275.558 2035.03 347.67C2037.24 385.235 2005.36 435.34 1990.35 427.027Z" fill="black"/>
<path d="M2036.48 158.588C2042.23 149.895 2051.91 146.354 2056.2 149.668C2059.66 152.343 2058.13 158.835 2055.81 163.516C2049.4 176.443 2035.81 190.582 2037.34 221.991C2039.23 260.919 2053.34 260.84 2085.97 302.053C2097.78 316.962 2101.62 347.118 2097.25 366.792C2091.4 393.2 2076.69 421.566 2065.24 418.241C2058.67 416.327 2054.21 405.266 2065.24 379.149C2074.22 357.9 2077.97 332.919 2067.35 316.639C2050.17 290.306 2016.89 273.89 2016.85 224.116C2016.83 189.725 2026.64 173.46 2036.48 158.588Z" fill="black"/>
<path d="M2166.06 1349.52C2212.52 1353.67 2259.07 1357.25 2304.12 1367.76C2323.46 1372.72 2347.43 1380.36 2361.83 1392.47C2368.88 1398.77 2364.32 1409.85 2353.51 1415.97C2315.36 1435.49 2265.56 1439.14 2221.96 1443.15C2174.47 1448.57 2126.55 1451.97 2079.05 1453.26C1907.73 1459.15 1724.27 1461.58 1579.39 1358.1C1773.76 1336.35 1971.43 1335.4 2166.06 1349.52ZM2684.7 919.345C2705.89 912.453 2728 911.179 2724.85 893.564C2722.62 884.077 2709.76 879.772 2697.64 881.727C2658.33 888.071 2634.88 902.239 2607.38 933.936C2574.86 969.719 2567.89 1029.1 2607.74 1062.55C2658.54 1105.17 2730.1 1077.15 2773.13 1037.83C2820.28 997.065 2860.33 951.022 2883.88 892.343C2932.09 779.679 2894.66 628.095 2761.19 602.657C2656.84 584.343 2565.16 666.79 2553.99 768.019C2551.58 784.148 2551.66 807.889 2551.73 824.21C2550.86 895.578 2551.76 960.833 2540.49 1031.06C2534.46 1065.55 2523.01 1106.97 2512.5 1140.41C2492.3 1198.95 2456.49 1240.65 2410.99 1292.94C2407.22 1297.27 2401.8 1305.03 2396.51 1313C2388.12 1325.66 2395.46 1342.74 2410.42 1345.38C2457.35 1353.64 2510.58 1360.59 2559.26 1368.54C2627.3 1379.65 2691.93 1396.47 2748.11 1435.86C2757.64 1443.83 2767.14 1452.26 2765.14 1460.54C2760.41 1471.7 2746.49 1481.92 2734.56 1489.38C2705.2 1506.92 2673.92 1521.39 2638.48 1530.9C2546.17 1555.68 2461.12 1566.99 2358.72 1574.69C2071.8 1596.24 1780.39 1591.87 1495.09 1554.07C1442.7 1546.11 1254.69 1517.88 1236.97 1468.61C1243.76 1414.05 1398.51 1385.59 1449.41 1375.88C1471.45 1372.29 1493.58 1369.08 1515.74 1366.07C1534.52 1382.29 1554.34 1397.55 1575.36 1410.73C1723.36 1503.54 1896.01 1504.84 2076.35 1500.15C2150.3 1498.23 2228.73 1496.54 2301.1 1480.45C2332.16 1472.41 2367.73 1462.75 2394.08 1439.05C2419.22 1417.11 2416.05 1380.58 2391.42 1359.75C2368.67 1340.09 2343.98 1331.93 2317.34 1323.62C2220.64 1296.41 2122.64 1295.39 2023.94 1292.55C1926.76 1290.71 1829.27 1293.49 1732.16 1299.31C1699.63 1301.68 1618.94 1306.48 1529.72 1318.18C1439.06 1231 1394.27 1076.56 1380.93 956.04C1369.32 846.023 1367.06 751.725 1419.95 672.58C1466.54 608.23 1569.89 585.545 1645.4 569.317C1832.86 533.309 2035.05 526.694 2224.12 552.581C2294.55 561.824 2356.88 575.193 2424.38 596.201C2458.38 606.394 2498.58 625.038 2517.52 656.2C2523.8 666.546 2526.82 678.852 2524.25 690.676C2513.68 739.188 2435.84 779.071 2391.68 794.949C2325.29 818.578 2253.83 831.254 2183.46 836.47C2111.83 842.028 2040.56 846.32 1968.72 847.066C1873.5 847.951 1776.84 843.87 1682.75 830.911C1637.15 824.163 1582.61 813.508 1540.23 796.613C1505.7 782.359 1473.03 759.899 1479.87 719.382C1492.28 684.338 1544.99 667.727 1581.07 657.474C1718.57 622.893 1863.92 624.84 2005.2 626.075C2100.44 626.405 2199.89 628.003 2293.25 645.261C2311.15 648.958 2356.47 657.21 2373.71 671.623C2379.36 676.35 2379.59 684.965 2374.12 689.897C2371.23 692.505 2367.51 695.172 2363.46 697.932C2335.29 715.275 2302.26 725.066 2269.5 734.085C2224.03 746.028 2176.84 753.977 2129.46 759.516C2034.67 769.181 1942.79 776.252 1847.53 772.793C1812.21 770.72 1778.73 767.841 1743.03 757.938C1730.93 754.584 1719.45 750.953 1710.76 744.839C1703.09 739.432 1701.46 729.093 1707.37 721.798C1721.2 704.725 1758.49 697.721 1780.3 693.746C1793.85 689.877 1790.51 670.857 1777.05 671.715C1750.62 673.398 1732.26 675.861 1707.85 687.837C1685.56 698.169 1661.86 726.004 1676.08 751.131C1689.37 771.301 1711.14 777.203 1730.39 785.079C1765.39 798.428 1804.4 803.261 1841.1 806.701C1939.2 815.33 2036.95 811.382 2134.08 799.98C2182.69 794.447 2230.7 786.221 2279.33 775.948C2316.59 767.59 2350.26 755.125 2384.39 735.009C2419.4 715.639 2444.72 684.015 2416.62 648.311C2387.38 615.201 2339.43 606.757 2300.53 599.964C2251.05 593.434 2202.36 590.866 2153.72 587.869C2080.71 583.478 2008.49 578.864 1935.38 578.811C1824.24 579.893 1474.45 582.521 1438.13 707.386C1428.19 738.158 1439.08 773.519 1460.35 795.992C1571.29 913.516 1955.8 896.925 2113.96 888.784C2212.6 882.922 2312.51 866.998 2403.59 825.18C2465.26 796.857 2522.94 764.368 2545.53 711.902C2565.38 665.786 2538.71 621.473 2505.05 595.322C2468.83 567.178 2416 547.174 2366.36 535.263C2215.26 499.005 2075.16 498.893 1928.83 499.012C1830.9 499.249 1713.84 505.673 1625.4 523.578C1541.67 540.525 1421.4 571.133 1370.69 662.994C1332.71 731.312 1329.73 810.953 1330.92 886.751C1333.36 1041.22 1373.75 1182.99 1465.49 1309C1469.76 1314.87 1474.41 1320.41 1479.13 1325.89C1320.34 1351.43 1156.03 1400.9 1203.23 1497.9C1247.82 1561.77 1413.52 1583.59 1489.09 1595.88C1778.51 1633.95 2071.26 1635.52 2361.95 1612.81C2434.73 1606.46 2507.6 1597.91 2579.56 1584.38C2629.05 1575.56 2673.74 1561.12 2719.79 1540.55C2744.54 1528.7 2770.54 1517.62 2790.04 1495.67C2813.61 1469.14 2804.44 1430.25 2772.43 1409.98C2749.17 1394.48 2715.34 1382.03 2691.65 1374.02C2644.22 1358.67 2609.22 1348.12 2561.73 1336.75C2529.93 1329.29 2489.99 1321.66 2457.02 1316.2C2453.15 1315.55 2451.46 1310.94 2454.01 1307.96C2469.42 1289.93 2486.34 1267.75 2499.14 1249.62C2520.79 1218.99 2535.33 1188.13 2548.83 1152.5C2561.98 1117.8 2566.64 1080.05 2572.2 1043.33C2584.21 966.009 2583.12 888.184 2582.1 810.504C2581.78 797.795 2582.27 784.551 2583.9 772.014C2592.74 687.547 2668.77 616.707 2755.1 635.192C2859.68 660.425 2880.22 787.476 2841.61 875.25C2822.59 921.894 2798.16 959.314 2760.62 993.354C2748.78 1004.04 2727.88 1019.16 2713.82 1026.42C2680.87 1046.4 2625.94 1042.93 2623.35 997.151C2623.05 960.285 2649.43 930.806 2684.7 919.345Z" fill="black"/>
</svg>
